<svg xmlns="http://www.w3.org/2000/svg" xmlns:xlink="http://www.w3.org/1999/xlink" version="1.1" width="1000" height="1000" viewBox="0 0 1000 1000" xml:space="preserve">
<desc>Created with Fabric.js 3.5.0</desc>
<defs>
</defs>
<rect x="0" y="0" width="100%" height="100%" fill="rgba(255,255,255,0)"/>
<g transform="matrix(5.0969 0 0 4.8934 500.0056 547.8145)" id="869449">
<g style="" vector-effect="non-scaling-stroke">
		<g transform="matrix(0.1333 0 0 -0.1333 -0.6723 -74.8687)">
<path style="stroke: none; stroke-width: 1; stroke-dasharray: none; stroke-linecap: butt; stroke-dashoffset: 0; stroke-linejoin: miter; stroke-miterlimit: 4; is-custom-font: none; font-file-url: none; fill: rgb(0,0,0); fill-rule: nonzero; opacity: 1;" transform=" translate(-1370, -1476.4982)" d="M 1283 1518 c -46 -17 -83 -34 -83 -37 c 0 -4 39 -20 88 -35 l 87 -28 l 71 26 c 39 14 74 26 77 26 c 3 0 8 -17 10 -37 c 3 -35 4 -35 5 9 l 2 46 l -77 27 c -43 15 -82 28 -88 30 c -5 2 -47 -10 -92 -27 z" stroke-linecap="round"/>
</g>
		<g transform="matrix(0.1333 0 0 -0.1333 -31.5455 -66.9218)">
<path style="stroke: none; stroke-width: 1; stroke-dasharray: none; stroke-linecap: butt; stroke-dashoffset: 0; stroke-linejoin: miter; stroke-miterlimit: 4; is-custom-font: none; font-file-url: none; fill: rgb(0,0,0); fill-rule: nonzero; opacity: 1;" transform=" translate(-1138.4175, -1416.9052)" d="M 1130 1440 c 0 -5 -7 -10 -16 -10 c -13 0 -14 -3 -4 -15 c 6 -8 9 -18 6 -23 c -3 -6 5 -9 18 -8 c 26 1 55 46 30 46 c -8 0 -14 5 -14 10 c 0 6 -4 10 -10 10 c -5 0 -10 -4 -10 -10 z" stroke-linecap="round"/>
</g>
		<g transform="matrix(0.1333 0 0 -0.1333 33.1017 -66.1911)">
<path style="stroke: none; stroke-width: 1; stroke-dasharray: none; stroke-linecap: butt; stroke-dashoffset: 0; stroke-linejoin: miter; stroke-miterlimit: 4; is-custom-font: none; font-file-url: none; fill: rgb(0,0,0); fill-rule: nonzero; opacity: 1;" transform=" translate(-1623.2713, -1411.4256)" d="M 1605 1436 c -17 -9 -19 -15 -10 -31 c 5 -11 20 -21 33 -22 c 14 -2 21 1 17 7 c -4 6 -1 17 5 25 c 10 12 9 15 -3 15 c -8 0 -17 4 -19 8 c -1 4 -12 3 -23 -2 z" stroke-linecap="round"/>
</g>
		<g transform="matrix(0.1333 0 0 -0.1333 -1.3344 -64.1362)">
<path style="stroke: none; stroke-width: 1; stroke-dasharray: none; stroke-linecap: butt; stroke-dashoffset: 0; stroke-linejoin: miter; stroke-miterlimit: 4; is-custom-font: none; font-file-url: none; fill: rgb(0,0,0); fill-rule: nonzero; opacity: 1;" transform=" translate(-1365.0161, -1396.0135)" d="M 1270 1401 c 0 -26 3 -29 47 -35 c 26 -3 69 -3 95 0 c 45 6 48 9 48 35 c 0 34 3 33 -49 14 c -36 -12 -46 -12 -82 0 c -56 20 -59 19 -59 -14 z" stroke-linecap="round"/>
</g>
		<g transform="matrix(0.1333 0 0 -0.1333 21.5876 -59.4425)">
<path style="stroke: none; stroke-width: 1; stroke-dasharray: none; stroke-linecap: butt; stroke-dashoffset: 0; stroke-linejoin: miter; stroke-miterlimit: 4; is-custom-font: none; font-file-url: none; fill: rgb(0,0,0); fill-rule: nonzero; opacity: 1;" transform=" translate(-1536.9124, -1360.8144)" d="M 1517 1373 c -3 -5 -2 -15 3 -22 c 10 -17 43 -6 38 12 c -6 15 -34 22 -41 10 z" stroke-linecap="round"/>
</g>
		<g transform="matrix(0.1333 0 0 -0.1333 -47.3831 -55.0779)">
<path style="stroke: none; stroke-width: 1; stroke-dasharray: none; stroke-linecap: butt; stroke-dashoffset: 0; stroke-linejoin: miter; stroke-miterlimit: 4; is-custom-font: none; font-file-url: none; fill: rgb(0,0,0); fill-rule: nonzero; opacity: 1;" transform=" translate(-1019.6347, -1328.0761)" d="M 998 1348 c -11 -11 -13 -20 -7 -24 c 6 -3 8 -11 6 -18 c -3 -6 7 -11 23 -11 c 16 0 26 4 23 8 c -3 4 0 13 5 20 c 7 8 4 17 -11 28 c -20 14 -23 14 -39 -3 z" stroke-linecap="round"/>
</g>
		<g transform="matrix(0.1333 0 0 -0.1333 48.6804 -55.0853)">
<path style="stroke: none; stroke-width: 1; stroke-dasharray: none; stroke-linecap: butt; stroke-dashoffset: 0; stroke-linejoin: miter; stroke-miterlimit: 4; is-custom-font: none; font-file-url: none; fill: rgb(0,0,0); fill-rule: nonzero; opacity: 1;" transform=" translate(-1740.1114, -1328.1313)" d="M 1721 1349 c -14 -11 -17 -20 -11 -24 c 6 -4 9 -12 7 -19 c -3 -7 7 -11 24 -11 c 18 0 27 5 25 11 c -2 6 0 16 5 21 c 5 5 1 15 -9 24 c -17 14 -21 14 -41 -2 z" stroke-linecap="round"/>
</g>
		<g transform="matrix(0.1333 0 0 -0.1333 -0.6813 -7.3443)">
<path style="stroke: none; stroke-width: 1; stroke-dasharray: none; stroke-linecap: butt; stroke-dashoffset: 0; stroke-linejoin: miter; stroke-miterlimit: 4; is-custom-font: none; font-file-url: none; fill: rgb(0,0,0); fill-rule: nonzero; opacity: 1;" transform=" translate(-1370, -970)" d="M 1210 1290 c 0 -6 52 -11 133 -12 l 132 -2 l -122 -3 l -123 -4 l -2 -147 l -2 -147 l -6 120 l -5 120 l -100 3 l -100 3 l -1 -35 c 0 -20 -8 -44 -17 -54 c -12 -13 -17 -37 -17 -82 c 0 -61 -1 -62 -18 -47 c -10 10 -22 14 -25 10 c -4 -3 -7 -89 -7 -190 l 0 -183 l 105 0 c 87 0 105 3 105 15 c 0 9 9 15 25 15 c 25 0 25 0 25 95 c 0 123 -18 125 -23 3 l -3 -93 l -2 93 c -1 53 -6 92 -12 92 c -5 0 -10 6 -10 14 c 0 8 -8 16 -17 18 c -17 4 78 53 210 110 l 48 21 l 127 -63 c 77 -38 120 -65 110 -67 c -10 -3 -18 -11 -18 -19 c 0 -8 -4 -14 -10 -14 c -6 0 -10 -38 -10 -95 c 0 -57 4 -95 10 -95 c 6 0 10 -7 10 -15 c 0 -12 18 -15 105 -15 l 105 0 l 0 192 c 0 184 -1 191 -18 175 c -10 -10 -22 -17 -25 -17 c -4 0 -7 29 -7 63 c 0 39 -6 77 -16 96 c -9 18 -14 41 -11 52 c 5 18 -1 19 -99 19 l -103 0 l -4 -122 l -3 -123 l -2 143 c -2 138 -3 143 -24 152 c -21 8 -20 9 10 9 c 17 1 32 6 32 11 c 0 6 -62 10 -165 10 c -103 0 -165 -4 -165 -10 z m 110 -105 c 0 -32 -2 -35 -30 -35 c -28 0 -30 3 -30 35 c 0 32 2 35 30 35 c 28 0 30 -3 30 -35 z m 90 0 c 0 -32 -2 -35 -30 -35 c -28 0 -30 3 -30 35 c 0 32 2 35 30 35 c 28 0 30 -3 30 -35 z m 82 23 c 3 -7 2 -23 0 -36 c -4 -18 -10 -22 -31 -20 c -21 2 -27 9 -29 36 c -3 30 -1 32 27 32 c 16 0 31 -5 33 -12 z m -402 -128 l 0 -50 l -35 0 l -35 0 l 0 50 l 0 50 l 35 0 l 35 0 l 0 -50 z m 90 0 l 0 -50 l -35 0 l -35 0 l 0 50 l 0 50 l 35 0 l 35 0 l 0 -50 z m 460 0 l 0 -50 l -35 0 l -35 0 l 0 50 l 0 50 l 35 0 l 35 0 l 0 -50 z m 95 0 c 0 -45 0 -45 -37 -48 l -38 -3 l 0 51 l 0 51 l 38 -3 c 37 -3 37 -3 37 -48 z m -415 5 c 0 -32 -2 -35 -30 -35 c -28 0 -30 3 -30 35 c 0 32 2 35 30 35 c 28 0 30 -3 30 -35 z m 90 0 c 0 -32 -2 -35 -30 -35 c -28 0 -30 3 -30 35 c 0 32 2 35 30 35 c 28 0 30 -3 30 -35 z m 85 0 c 0 -27 -4 -30 -32 -33 c -30 -3 -33 -1 -33 26 c 0 36 8 44 40 40 c 20 -2 25 -8 25 -33 z m -405 -120 c 0 -45 0 -45 -35 -45 c -35 0 -35 0 -35 45 c 0 45 0 45 35 45 c 35 0 35 0 35 -45 z m 90 14 c 0 -17 -4 -28 -10 -24 c -5 3 -10 15 -10 26 c 0 12 -7 19 -19 19 c -16 0 -21 -8 -24 -42 l -4 -43 l -1 48 l -2 47 l 35 0 c 32 0 35 -2 35 -31 z m 460 -14 c 0 -25 -4 -45 -10 -45 c -5 0 -10 18 -10 40 c 0 33 -3 40 -19 40 c -14 0 -21 -8 -24 -27 c -4 -26 -4 -26 -6 5 c -1 30 1 32 34 32 c 35 0 35 0 35 -45 z m 100 0 l 0 -45 l -40 0 l -40 0 l 0 45 l 0 45 l 40 0 l 40 0 l 0 -45 z m -650 -115 l 0 -50 l -35 0 c -35 0 -35 0 -35 43 c 0 51 4 57 42 57 c 27 0 28 -2 28 -50 z m 648 -2 l 3 -48 l -40 0 l -41 0 l 0 43 c 0 52 5 59 45 55 c 28 -3 30 -6 33 -50 z" stroke-linecap="round"/>
</g>
		<g transform="matrix(0.1333 0 0 -0.1333 -11.3337 -36.6673)">
<path style="stroke: none; stroke-width: 1; stroke-dasharray: none; stroke-linecap: butt; stroke-dashoffset: 0; stroke-linejoin: miter; stroke-miterlimit: 4; is-custom-font: none; font-file-url: none; fill: rgb(0,0,0); fill-rule: nonzero; opacity: 1;" transform=" translate(-1290, -1190)" d="M 1280 1190 c 0 -11 5 -20 10 -20 c 6 0 10 9 10 20 c 0 11 -4 20 -10 20 c -5 0 -10 -9 -10 -20 z" stroke-linecap="round"/>
</g>
		<g transform="matrix(0.1333 0 0 -0.1333 -0.0006 -36.6673)">
<path style="stroke: none; stroke-width: 1; stroke-dasharray: none; stroke-linecap: butt; stroke-dashoffset: 0; stroke-linejoin: miter; stroke-miterlimit: 4; is-custom-font: none; font-file-url: none; fill: rgb(0,0,0); fill-rule: nonzero; opacity: 1;" transform=" translate(-1375, -1190)" d="M 1360 1190 c 0 -11 7 -20 15 -20 c 8 0 15 9 15 20 c 0 11 -7 20 -15 20 c -8 0 -15 -9 -15 -20 z" stroke-linecap="round"/>
</g>
		<g transform="matrix(0.1333 0 0 -0.1333 11.9994 -36.6673)">
<path style="stroke: none; stroke-width: 1; stroke-dasharray: none; stroke-linecap: butt; stroke-dashoffset: 0; stroke-linejoin: miter; stroke-miterlimit: 4; is-custom-font: none; font-file-url: none; fill: rgb(0,0,0); fill-rule: nonzero; opacity: 1;" transform=" translate(-1465, -1190)" d="M 1450 1190 c 0 -11 7 -20 15 -20 c 8 0 15 9 15 20 c 0 11 -7 20 -15 20 c -8 0 -15 -9 -15 -20 z" stroke-linecap="round"/>
</g>
		<g transform="matrix(0.1333 0 0 -0.1333 -42.4102 -22.001)">
<path style="stroke: none; stroke-width: 1; stroke-dasharray: none; stroke-linecap: butt; stroke-dashoffset: 0; stroke-linejoin: miter; stroke-miterlimit: 4; is-custom-font: none; font-file-url: none; fill: rgb(0,0,0); fill-rule: nonzero; opacity: 1;" transform=" translate(-1056.9294, -1080)" d="M 1034 1080 c -1 -25 3 -30 22 -30 c 20 0 24 5 24 30 c 0 24 -4 30 -22 30 c -19 0 -23 -6 -24 -30 z" stroke-linecap="round"/>
</g>
		<g transform="matrix(0.1333 0 0 -0.1333 -31.0986 -22.001)">
<path style="stroke: none; stroke-width: 1; stroke-dasharray: none; stroke-linecap: butt; stroke-dashoffset: 0; stroke-linejoin: miter; stroke-miterlimit: 4; is-custom-font: none; font-file-url: none; fill: rgb(0,0,0); fill-rule: nonzero; opacity: 1;" transform=" translate(-1141.7662, -1080)" d="M 1120 1080 c 0 -25 4 -30 23 -30 c 20 0 23 4 19 30 c -3 21 -10 30 -23 30 c -14 0 -19 -7 -19 -30 z" stroke-linecap="round"/>
</g>
		<g transform="matrix(0.1333 0 0 -0.1333 29.9993 -22.001)">
<path style="stroke: none; stroke-width: 1; stroke-dasharray: none; stroke-linecap: butt; stroke-dashoffset: 0; stroke-linejoin: miter; stroke-miterlimit: 4; is-custom-font: none; font-file-url: none; fill: rgb(0,0,0); fill-rule: nonzero; opacity: 1;" transform=" translate(-1600, -1080)" d="M 1580 1080 c 0 -23 4 -30 20 -30 c 16 0 20 7 20 30 c 0 23 -4 30 -20 30 c -16 0 -20 -7 -20 -30 z" stroke-linecap="round"/>
</g>
		<g transform="matrix(0.1333 0 0 -0.1333 43.3327 -22.001)">
<path style="stroke: none; stroke-width: 1; stroke-dasharray: none; stroke-linecap: butt; stroke-dashoffset: 0; stroke-linejoin: miter; stroke-miterlimit: 4; is-custom-font: none; font-file-url: none; fill: rgb(0,0,0); fill-rule: nonzero; opacity: 1;" transform=" translate(-1700, -1080)" d="M 1680 1080 c 0 -23 4 -30 20 -30 c 16 0 20 7 20 30 c 0 23 -4 30 -20 30 c -16 0 -20 -7 -20 -30 z" stroke-linecap="round"/>
</g>
		<g transform="matrix(0.1333 0 0 -0.1333 -11.3337 -22.6676)">
<path style="stroke: none; stroke-width: 1; stroke-dasharray: none; stroke-linecap: butt; stroke-dashoffset: 0; stroke-linejoin: miter; stroke-miterlimit: 4; is-custom-font: none; font-file-url: none; fill: rgb(0,0,0); fill-rule: nonzero; opacity: 1;" transform=" translate(-1290, -1085)" d="M 1280 1085 c 0 -14 5 -25 10 -25 c 6 0 10 11 10 25 c 0 14 -4 25 -10 25 c -5 0 -10 -11 -10 -25 z" stroke-linecap="round"/>
</g>
		<g transform="matrix(0.1333 0 0 -0.1333 -0.0006 -22.6676)">
<path style="stroke: none; stroke-width: 1; stroke-dasharray: none; stroke-linecap: butt; stroke-dashoffset: 0; stroke-linejoin: miter; stroke-miterlimit: 4; is-custom-font: none; font-file-url: none; fill: rgb(0,0,0); fill-rule: nonzero; opacity: 1;" transform=" translate(-1375, -1085)" d="M 1360 1085 c 0 -16 6 -25 15 -25 c 9 0 15 9 15 25 c 0 16 -6 25 -15 25 c -9 0 -15 -9 -15 -25 z" stroke-linecap="round"/>
</g>
		<g transform="matrix(0.1333 0 0 -0.1333 11.9994 -22.6676)">
<path style="stroke: none; stroke-width: 1; stroke-dasharray: none; stroke-linecap: butt; stroke-dashoffset: 0; stroke-linejoin: miter; stroke-miterlimit: 4; is-custom-font: none; font-file-url: none; fill: rgb(0,0,0); fill-rule: nonzero; opacity: 1;" transform=" translate(-1465, -1085)" d="M 1450 1085 c 0 -16 6 -25 15 -25 c 9 0 15 9 15 25 c 0 16 -6 25 -15 25 c -9 0 -15 -9 -15 -25 z" stroke-linecap="round"/>
</g>
		<g transform="matrix(0.1333 0 0 -0.1333 -42.3192 -6.694)">
<path style="stroke: none; stroke-width: 1; stroke-dasharray: none; stroke-linecap: butt; stroke-dashoffset: 0; stroke-linejoin: miter; stroke-miterlimit: 4; is-custom-font: none; font-file-url: none; fill: rgb(0,0,0); fill-rule: nonzero; opacity: 1;" transform=" translate(-1057.6115, -965.1958)" d="M 1039 995 c -3 -3 -4 -18 -1 -35 c 3 -22 10 -30 24 -30 c 16 0 19 6 16 32 c -3 30 -25 48 -39 33 z" stroke-linecap="round"/>
</g>
		<g transform="matrix(0.1333 0 0 -0.1333 43.3327 -6.6679)">
<path style="stroke: none; stroke-width: 1; stroke-dasharray: none; stroke-linecap: butt; stroke-dashoffset: 0; stroke-linejoin: miter; stroke-miterlimit: 4; is-custom-font: none; font-file-url: none; fill: rgb(0,0,0); fill-rule: nonzero; opacity: 1;" transform=" translate(-1700, -965)" d="M 1680 965 c 0 -28 4 -35 20 -35 c 16 0 20 7 20 35 c 0 28 -4 35 -20 35 c -16 0 -20 -7 -20 -35 z" stroke-linecap="round"/>
</g>
		<g transform="matrix(0.1333 0 0 -0.1333 -42.4675 8.6656)">
<path style="stroke: none; stroke-width: 1; stroke-dasharray: none; stroke-linecap: butt; stroke-dashoffset: 0; stroke-linejoin: miter; stroke-miterlimit: 4; is-custom-font: none; font-file-url: none; fill: rgb(0,0,0); fill-rule: nonzero; opacity: 1;" transform=" translate(-1056.5, -850)" d="M 1033 850 c 0 -25 4 -30 24 -30 c 19 0 23 5 23 30 c 0 25 -4 30 -23 30 c -20 0 -24 -5 -24 -30 z" stroke-linecap="round"/>
</g>
		<g transform="matrix(0.1333 0 0 -0.1333 43.3327 8.9526)">
<path style="stroke: none; stroke-width: 1; stroke-dasharray: none; stroke-linecap: butt; stroke-dashoffset: 0; stroke-linejoin: miter; stroke-miterlimit: 4; is-custom-font: none; font-file-url: none; fill: rgb(0,0,0); fill-rule: nonzero; opacity: 1;" transform=" translate(-1700, -847.8475)" d="M 1680 851 c 0 -20 6 -30 20 -34 c 17 -4 20 0 20 29 c 0 27 -4 34 -20 34 c -15 0 -20 -7 -20 -29 z" stroke-linecap="round"/>
</g>
		<g transform="matrix(0.1333 0 0 -0.1333 -57.6344 -43.551)">
<path style="stroke: none; stroke-width: 1; stroke-dasharray: none; stroke-linecap: butt; stroke-dashoffset: 0; stroke-linejoin: miter; stroke-miterlimit: 4; is-custom-font: none; font-file-url: none; fill: rgb(0,0,0); fill-rule: nonzero; opacity: 1;" transform=" translate(-942.7538, -1241.6272)" d="M 896 1252 c -3 -5 8 -6 25 -4 c 19 3 37 -2 49 -13 c 11 -10 20 -15 20 -10 c 0 25 -81 48 -94 27 z" stroke-linecap="round"/>
</g>
		<g transform="matrix(0.1333 0 0 -0.1333 59.8644 -36.5754)">
<path style="stroke: none; stroke-width: 1; stroke-dasharray: none; stroke-linecap: butt; stroke-dashoffset: 0; stroke-linejoin: miter; stroke-miterlimit: 4; is-custom-font: none; font-file-url: none; fill: rgb(0,0,0); fill-rule: nonzero; opacity: 1;" transform=" translate(-1824, -1189.2977)" d="M 1775 1244 c -14 -10 -20 -26 -20 -54 c 0 -46 24 -69 71 -70 c 39 0 67 30 67 71 c 0 56 -71 88 -118 53 z m 85 -14 c 39 -39 14 -100 -41 -100 c -30 0 -59 31 -59 62 c 0 24 35 58 60 58 c 11 0 29 -9 40 -20 z" stroke-linecap="round"/>
</g>
		<g transform="matrix(0.1333 0 0 -0.1333 59.3112 -36.3042)">
<path style="stroke: none; stroke-width: 1; stroke-dasharray: none; stroke-linecap: butt; stroke-dashoffset: 0; stroke-linejoin: miter; stroke-miterlimit: 4; is-custom-font: none; font-file-url: none; fill: rgb(0,0,0); fill-rule: nonzero; opacity: 1;" transform=" translate(-1819.8441, -1187.2708)" d="M 1792 1218 c -34 -34 6 -90 48 -68 c 25 13 28 65 4 74 c -24 9 -39 7 -52 -6 z" stroke-linecap="round"/>
</g>
		<g transform="matrix(0.1333 0 0 -0.1333 -60.3631 -35.2606)">
<path style="stroke: none; stroke-width: 1; stroke-dasharray: none; stroke-linecap: butt; stroke-dashoffset: 0; stroke-linejoin: miter; stroke-miterlimit: 4; is-custom-font: none; font-file-url: none; fill: rgb(0,0,0); fill-rule: nonzero; opacity: 1;" transform=" translate(-922.2933, -1179.4397)" d="M 860 1215 c -18 -48 18 -95 72 -95 c 24 1 65 26 56 35 c -3 3 -11 -1 -18 -10 c -17 -20 -64 -19 -85 2 c -12 12 -16 27 -12 55 c 6 44 1 49 -13 13 z" stroke-linecap="round"/>
</g>
		<g transform="matrix(0.1333 0 0 -0.1333 -59.9468 -36.8545)">
<path style="stroke: none; stroke-width: 1; stroke-dasharray: none; stroke-linecap: butt; stroke-dashoffset: 0; stroke-linejoin: miter; stroke-miterlimit: 4; is-custom-font: none; font-file-url: none; fill: rgb(0,0,0); fill-rule: nonzero; opacity: 1;" transform=" translate(-925.41, -1191.3967)" d="M 897 1222 c -24 -26 -21 -49 7 -67 c 34 -23 66 -5 66 35 c 0 45 -44 64 -73 32 z" stroke-linecap="round"/>
</g>
		<g transform="matrix(0.1333 0 0 -0.1333 -50.6334 -36.6909)">
<path style="stroke: none; stroke-width: 1; stroke-dasharray: none; stroke-linecap: butt; stroke-dashoffset: 0; stroke-linejoin: miter; stroke-miterlimit: 4; is-custom-font: none; font-file-url: none; fill: rgb(0,0,0); fill-rule: nonzero; opacity: 1;" transform=" translate(-995.25, -1190.1777)" d="M 992 1190 c 0 -14 2 -19 5 -12 c 2 6 2 18 0 25 c -3 6 -5 1 -5 -13 z" stroke-linecap="round"/>
</g>
		<g transform="matrix(0.1333 0 0 -0.1333 -71.3441 -24.9741)">
<path style="stroke: none; stroke-width: 1; stroke-dasharray: none; stroke-linecap: butt; stroke-dashoffset: 0; stroke-linejoin: miter; stroke-miterlimit: 4; is-custom-font: none; font-file-url: none; fill: rgb(0,0,0); fill-rule: nonzero; opacity: 1;" transform=" translate(-839.9277, -1102.2968)" d="M 822 1109 c -23 -28 -23 -29 -4 -29 c 11 0 22 -5 24 -11 c 2 -7 12 0 22 15 c 14 22 15 30 5 42 c -16 19 -20 18 -47 -17 z" stroke-linecap="round"/>
</g>
		<g transform="matrix(0.1333 0 0 -0.1333 71.3418 -24.9741)">
<path style="stroke: none; stroke-width: 1; stroke-dasharray: none; stroke-linecap: butt; stroke-dashoffset: 0; stroke-linejoin: miter; stroke-miterlimit: 4; is-custom-font: none; font-file-url: none; fill: rgb(0,0,0); fill-rule: nonzero; opacity: 1;" transform=" translate(-1910.0723, -1102.2968)" d="M 1881 1126 c -10 -12 -9 -20 5 -42 c 10 -15 20 -22 22 -15 c 2 6 13 11 24 11 c 19 0 19 1 -4 29 c -27 35 -31 36 -47 17 z" stroke-linecap="round"/>
</g>
		<g transform="matrix(0.1333 0 0 -0.1333 57.3272 -20.0021)">
<path style="stroke: none; stroke-width: 1; stroke-dasharray: none; stroke-linecap: butt; stroke-dashoffset: 0; stroke-linejoin: miter; stroke-miterlimit: 4; is-custom-font: none; font-file-url: none; fill: rgb(0,0,0); fill-rule: nonzero; opacity: 1;" transform=" translate(-1804.9602, -1065.0062)" d="M 1781 1061 c 0 -25 3 -40 6 -33 c 2 6 11 12 18 12 c 7 0 16 -6 18 -12 c 3 -7 6 6 6 28 c 1 37 -2 42 -24 46 c -24 5 -25 3 -24 -41 z" stroke-linecap="round"/>
</g>
		<g transform="matrix(0.1333 0 0 -0.1333 -57.3342 -19.6544)">
<path style="stroke: none; stroke-width: 1; stroke-dasharray: none; stroke-linecap: butt; stroke-dashoffset: 0; stroke-linejoin: miter; stroke-miterlimit: 4; is-custom-font: none; font-file-url: none; fill: rgb(0,0,0); fill-rule: nonzero; opacity: 1;" transform=" translate(-945, -1062.3986)" d="M 920 1064 c 0 -22 4 -33 10 -29 c 6 4 17 1 25 -5 c 13 -11 15 -6 15 29 c 0 37 -2 41 -25 41 c -22 0 -25 -4 -25 -36 z" stroke-linecap="round"/>
</g>
		<g transform="matrix(0.1333 0 0 -0.1333 -1.0717 -5.1351)">
<path style="stroke: none; stroke-width: 1; stroke-dasharray: none; stroke-linecap: butt; stroke-dashoffset: 0; stroke-linejoin: miter; stroke-miterlimit: 4; is-custom-font: none; font-file-url: none; fill: rgb(0,0,0); fill-rule: nonzero; opacity: 1;" transform=" translate(-1367.0157, -953.5)" d="M 1265 954 l -110 -53 l 214 -1 c 118 0 212 2 210 4 c -2 2 -49 26 -104 53 l -100 50 l -110 -53 z m 139 9 c 9 -21 -16 -46 -37 -37 c -17 6 -23 35 -10 47 c 12 13 41 7 47 -10 z" stroke-linecap="round"/>
</g>
		<g transform="matrix(0.1333 0 0 -0.1333 0.2414 -5.1894)">
<path style="stroke: none; stroke-width: 1; stroke-dasharray: none; stroke-linecap: butt; stroke-dashoffset: 0; stroke-linejoin: miter; stroke-miterlimit: 4; is-custom-font: none; font-file-url: none; fill: rgb(0,0,0); fill-rule: nonzero; opacity: 1;" transform=" translate(-1376.8133, -953.9176)" d="M 1366 962 c -3 -6 -1 -14 5 -17 c 15 -10 25 3 12 16 c -7 7 -13 7 -17 1 z" stroke-linecap="round"/>
</g>
		<g transform="matrix(0.1333 0 0 -0.1333 -25.3342 4.6664)">
<path style="stroke: none; stroke-width: 1; stroke-dasharray: none; stroke-linecap: butt; stroke-dashoffset: 0; stroke-linejoin: miter; stroke-miterlimit: 4; is-custom-font: none; font-file-url: none; fill: rgb(0,0,0); fill-rule: nonzero; opacity: 1;" transform=" translate(-1185, -880)" d="M 1160 880 c 0 -5 11 -10 25 -10 c 14 0 25 5 25 10 c 0 6 -11 10 -25 10 c -14 0 -25 -4 -25 -10 z" stroke-linecap="round"/>
</g>
		<g transform="matrix(0.1333 0 0 -0.1333 -17.3406 19.9959)">
<path style="stroke: none; stroke-width: 1; stroke-dasharray: none; stroke-linecap: butt; stroke-dashoffset: 0; stroke-linejoin: miter; stroke-miterlimit: 4; is-custom-font: none; font-file-url: none; fill: rgb(0,0,0); fill-rule: nonzero; opacity: 1;" transform=" translate(-1244.9545, -765)" d="M 1220 871 c -11 -21 -14 -171 -4 -208 c 4 -15 14 -23 29 -23 c 29 0 35 21 35 128 c 0 86 -10 122 -35 122 c -8 0 -19 -9 -25 -19 z" stroke-linecap="round"/>
</g>
		<g transform="matrix(0.1333 0 0 -0.1333 -9.3341 4.6664)">
<path style="stroke: none; stroke-width: 1; stroke-dasharray: none; stroke-linecap: butt; stroke-dashoffset: 0; stroke-linejoin: miter; stroke-miterlimit: 4; is-custom-font: none; font-file-url: none; fill: rgb(0,0,0); fill-rule: nonzero; opacity: 1;" transform=" translate(-1305, -880)" d="M 1280 880 c 0 -5 11 -10 25 -10 c 14 0 25 5 25 10 c 0 6 -11 10 -25 10 c -14 0 -25 -4 -25 -10 z" stroke-linecap="round"/>
</g>
		<g transform="matrix(0.1333 0 0 -0.1333 -0.6681 19.9959)">
<path style="stroke: none; stroke-width: 1; stroke-dasharray: none; stroke-linecap: butt; stroke-dashoffset: 0; stroke-linejoin: miter; stroke-miterlimit: 4; is-custom-font: none; font-file-url: none; fill: rgb(0,0,0); fill-rule: nonzero; opacity: 1;" transform=" translate(-1370, -765)" d="M 1350 875 c 0 -8 -4 -15 -10 -15 c -6 0 -10 -38 -10 -95 c 0 -57 4 -95 10 -95 c 6 0 10 -7 10 -15 c 0 -9 9 -15 24 -15 c 30 0 36 20 36 125 c 0 105 -6 125 -36 125 c -15 0 -24 -6 -24 -15 z" stroke-linecap="round"/>
</g>
		<g transform="matrix(0.1333 0 0 -0.1333 8.666 4.6664)">
<path style="stroke: none; stroke-width: 1; stroke-dasharray: none; stroke-linecap: butt; stroke-dashoffset: 0; stroke-linejoin: miter; stroke-miterlimit: 4; is-custom-font: none; font-file-url: none; fill: rgb(0,0,0); fill-rule: nonzero; opacity: 1;" transform=" translate(-1440, -880)" d="M 1420 880 c 0 -5 9 -10 20 -10 c 11 0 20 5 20 10 c 0 6 -9 10 -20 10 c -11 0 -20 -4 -20 -10 z" stroke-linecap="round"/>
</g>
		<g transform="matrix(0.1333 0 0 -0.1333 13.9817 19.9974)">
<path style="stroke: none; stroke-width: 1; stroke-dasharray: none; stroke-linecap: butt; stroke-dashoffset: 0; stroke-linejoin: miter; stroke-miterlimit: 4; is-custom-font: none; font-file-url: none; fill: rgb(0,0,0); fill-rule: nonzero; opacity: 1;" transform=" translate(-1479.875, -764.9884)" d="M 1480 875 c 0 -9 -9 -15 -25 -15 c -25 0 -25 0 -25 -95 c 0 -57 4 -95 10 -95 c 6 0 10 37 10 90 c 0 53 4 90 10 90 c 6 0 10 -34 10 -82 c 0 -103 7 -128 32 -128 c 10 0 17 4 13 9 c -3 5 -1 12 5 16 c 13 8 13 181 0 206 c -13 23 -40 26 -40 4 z" stroke-linecap="round"/>
</g>
		<g transform="matrix(0.1333 0 0 -0.1333 23.9992 4.6664)">
<path style="stroke: none; stroke-width: 1; stroke-dasharray: none; stroke-linecap: butt; stroke-dashoffset: 0; stroke-linejoin: miter; stroke-miterlimit: 4; is-custom-font: none; font-file-url: none; fill: rgb(0,0,0); fill-rule: nonzero; opacity: 1;" transform=" translate(-1555, -880)" d="M 1530 880 c 0 -5 11 -10 25 -10 c 14 0 25 5 25 10 c 0 6 -11 10 -25 10 c -14 0 -25 -4 -25 -10 z" stroke-linecap="round"/>
</g>
		<g transform="matrix(0.1333 0 0 -0.1333 -8.6671 19.9969)">
<path style="stroke: none; stroke-width: 1; stroke-dasharray: none; stroke-linecap: butt; stroke-dashoffset: 0; stroke-linejoin: miter; stroke-miterlimit: 4; is-custom-font: none; font-file-url: none; fill: rgb(0,0,0); fill-rule: nonzero; opacity: 1;" transform=" translate(-1310, -765)" d="M 1300 765 c 0 -57 4 -95 10 -95 c 6 0 10 38 10 95 c 0 57 -4 95 -10 95 c -6 0 -10 -38 -10 -95 z" stroke-linecap="round"/>
</g>
		<g transform="matrix(0.1333 0 0 -0.1333 24.6664 19.9969)">
<path style="stroke: none; stroke-width: 1; stroke-dasharray: none; stroke-linecap: butt; stroke-dashoffset: 0; stroke-linejoin: miter; stroke-miterlimit: 4; is-custom-font: none; font-file-url: none; fill: rgb(0,0,0); fill-rule: nonzero; opacity: 1;" transform=" translate(-1560, -765)" d="M 1550 765 c 0 -57 4 -95 10 -95 c 6 0 10 38 10 95 c 0 57 -4 95 -10 95 c -6 0 -10 -38 -10 -95 z" stroke-linecap="round"/>
</g>
		<g transform="matrix(0.1333 0 0 -0.1333 -25.1189 36.0332)">
<path style="stroke: none; stroke-width: 1; stroke-dasharray: none; stroke-linecap: butt; stroke-dashoffset: 0; stroke-linejoin: miter; stroke-miterlimit: 4; is-custom-font: none; font-file-url: none; fill: rgb(0,0,0); fill-rule: nonzero; opacity: 1;" transform=" translate(-1186.6132, -644.75)" d="M 1173 643 c 9 -2 23 -2 30 0 c 6 3 -1 5 -18 5 c -16 0 -22 -2 -12 -5 z" stroke-linecap="round"/>
</g>
		<g transform="matrix(0.1333 0 0 -0.1333 -9.1189 36.0332)">
<path style="stroke: none; stroke-width: 1; stroke-dasharray: none; stroke-linecap: butt; stroke-dashoffset: 0; stroke-linejoin: miter; stroke-miterlimit: 4; is-custom-font: none; font-file-url: none; fill: rgb(0,0,0); fill-rule: nonzero; opacity: 1;" transform=" translate(-1306.6132, -644.75)" d="M 1293 643 c 9 -2 23 -2 30 0 c 6 3 -1 5 -18 5 c -16 0 -22 -2 -12 -5 z" stroke-linecap="round"/>
</g>
		<g transform="matrix(0.1333 0 0 -0.1333 8.2145 36.0332)">
<path style="stroke: none; stroke-width: 1; stroke-dasharray: none; stroke-linecap: butt; stroke-dashoffset: 0; stroke-linejoin: miter; stroke-miterlimit: 4; is-custom-font: none; font-file-url: none; fill: rgb(0,0,0); fill-rule: nonzero; opacity: 1;" transform=" translate(-1436.6132, -644.75)" d="M 1423 643 c 9 -2 23 -2 30 0 c 6 3 -1 5 -18 5 c -16 0 -22 -2 -12 -5 z" stroke-linecap="round"/>
</g>
		<g transform="matrix(0.1333 0 0 -0.1333 24.2145 36.0332)">
<path style="stroke: none; stroke-width: 1; stroke-dasharray: none; stroke-linecap: butt; stroke-dashoffset: 0; stroke-linejoin: miter; stroke-miterlimit: 4; is-custom-font: none; font-file-url: none; fill: rgb(0,0,0); fill-rule: nonzero; opacity: 1;" transform=" translate(-1556.6132, -644.75)" d="M 1543 643 c 9 -2 23 -2 30 0 c 6 3 -1 5 -18 5 c -16 0 -22 -2 -12 -5 z" stroke-linecap="round"/>
</g>
		<g transform="matrix(0.1333 0 0 -0.1333 -0.6481 40.1666)">
<path style="stroke: none; stroke-width: 1; stroke-dasharray: none; stroke-linecap: butt; stroke-dashoffset: 0; stroke-linejoin: miter; stroke-miterlimit: 4; is-custom-font: none; font-file-url: none; fill: rgb(0,0,0); fill-rule: nonzero; opacity: 1;" transform=" translate(-1370.1793, -613.75)" d="M 1243 613 c 70 -2 184 -2 255 0 c 70 1 12 3 -128 3 c -140 0 -198 -2 -127 -3 z" stroke-linecap="round"/>
</g>
		<g transform="matrix(0.1333 0 0 -0.1333 -22.5841 74.4634)">
<path style="stroke: none; stroke-width: 1; stroke-dasharray: none; stroke-linecap: butt; stroke-dashoffset: 0; stroke-linejoin: miter; stroke-miterlimit: 4; is-custom-font: none; font-file-url: none; fill: rgb(0,0,0); fill-rule: nonzero; opacity: 1;" transform=" translate(-1205.6199, -356.5179)" d="M 1203 355 c 0 -22 2 -30 4 -17 c 2 12 2 30 0 40 c -3 9 -5 -1 -4 -23 z" stroke-linecap="round"/>
</g>
		<g transform="matrix(0.1333 0 0 -0.1333 -13.2508 74.4634)">
<path style="stroke: none; stroke-width: 1; stroke-dasharray: none; stroke-linecap: butt; stroke-dashoffset: 0; stroke-linejoin: miter; stroke-miterlimit: 4; is-custom-font: none; font-file-url: none; fill: rgb(0,0,0); fill-rule: nonzero; opacity: 1;" transform=" translate(-1275.6199, -356.5179)" d="M 1273 355 c 0 -22 2 -30 4 -17 c 2 12 2 30 0 40 c -3 9 -5 -1 -4 -23 z" stroke-linecap="round"/>
</g>
		<g transform="matrix(0.1333 0 0 -0.1333 26.7492 74.4634)">
<path style="stroke: none; stroke-width: 1; stroke-dasharray: none; stroke-linecap: butt; stroke-dashoffset: 0; stroke-linejoin: miter; stroke-miterlimit: 4; is-custom-font: none; font-file-url: none; fill: rgb(0,0,0); fill-rule: nonzero; opacity: 1;" transform=" translate(-1575.6199, -356.5179)" d="M 1573 355 c 0 -22 2 -30 4 -17 c 2 12 2 30 0 40 c -3 9 -5 -1 -4 -23 z" stroke-linecap="round"/>
</g>
		<g transform="matrix(0.1333 0 0 -0.1333 8.0765 73.998)">
<path style="stroke: none; stroke-width: 1; stroke-dasharray: none; stroke-linecap: butt; stroke-dashoffset: 0; stroke-linejoin: miter; stroke-miterlimit: 4; is-custom-font: none; font-file-url: none; fill: rgb(0,0,0); fill-rule: nonzero; opacity: 1;" transform=" translate(-1435.5802, -360.0122)" d="M 1430 360 c -23 -7 -23 -8 -3 -9 c 12 -1 25 4 28 9 c 3 6 5 10 3 9 c -2 -1 -14 -5 -28 -9 z" stroke-linecap="round"/>
</g>
		<g transform="matrix(0.1333 0 0 -0.1333 18.0961 75.8022)">
<path style="stroke: none; stroke-width: 1; stroke-dasharray: none; stroke-linecap: butt; stroke-dashoffset: 0; stroke-linejoin: miter; stroke-miterlimit: 4; is-custom-font: none; font-file-url: none; fill: rgb(0,0,0); fill-rule: nonzero; opacity: 1;" transform=" translate(-1510.7229, -346.4807)" d="M 1506 347 c 3 -10 9 -15 12 -12 c 3 3 0 11 -7 18 c -10 9 -11 8 -5 -6 z" stroke-linecap="round"/>
</g>
</g>
</g>
</svg>